#!OML:ASF F:\VICON\USERDATA\INSTALL\rory3\rory3.ASF
:FULLY-SPECIFIED
:DEGREES
4371
root 5.98051 16.7882 -3.95112 10.6564 -71.5111 -8.46183
lowerback 10.6622 3.38327 2.96361
upperback 1.06794 4.95092 3.45929
thorax -4.91012 2.38268 1.22401
lowerneck -21.8553 4.18792 -7.45006
upperneck 22.6249 6.82748 5.7143
head 10.3683 3.17784 4.28672
rclavicle -1.03964e-013 1.59028e-015
rhumerus -0.387554 12.6493 -78.6301
rradius 128.305
rwrist -4.59585
rhand -15.0058 29.279
rfingers 7.12502
rthumb 11.1591 -0.404235
lclavicle -1.03964e-013 1.59028e-015
lhumerus 0.418961 -4.08544 84.9825
lradius 127.92
lwrist -6.45922
lhand -11.3737 6.28553
lfingers 7.12502
lthumb 14.6605 35.7472
rfemur -7.87987 -6.52238 13.7672
rtibia 46.139
rfoot -26.3939 4.13883
rtoes -16.4856
lfemur -34.3244 0.204663 -7.29769
ltibia 55.1128
lfoot -12.2647 -9.16038
ltoes -23.3624
4372
root 5.9914 16.7408 -3.95811 10.56 -72.0531 -8.10897
lowerback 10.6654 3.42981 2.84199
upperback 0.916209 5.01029 3.47875
thorax -5.08409 2.41295 1.29794
lowerneck -21.848 4.28626 -7.55836
upperneck 22.5324 7.02785 5.61796
head 10.318 3.25177 4.29107
rclavicle 4.57205e-015 -3.4191e-014
rhumerus -0.724622 12.6525 -78.7889
rradius 128.099
rwrist -4.17207
rhand -15.0607 29.3313
rfingers 7.12502
rthumb 11.1062 -0.354822
lclavicle 4.57205e-015 -3.4191e-014
lhumerus 0.0683152 -3.50606 85.0715
lradius 128.137
lwrist -6.69216
lhand -11.0355 6.03018
lfingers 7.12502
lthumb 14.9863 35.4679
rfemur -8.55436 -6.6895 13.5989
rtibia 46.635
rfoot -27.1659 3.90372
rtoes -16.2573
lfemur -34.8849 0.777133 -7.55447
ltibia 55.827
lfoot -12.7363 -8.50645
ltoes -23.5143
4373
root 5.99625 16.6967 -3.96106 11.3243 -72.5308 -8.84555
lowerback 10.7012 3.4501 2.98864
upperback 0.908247 5.06101 3.63643
thorax -5.11495 2.4339 1.37134
lowerneck -22.0101 4.43723 -7.44349
upperneck 22.4497 7.2967 5.30554
head 10.3173 3.34825 4.19949
rclavicle 5.32743e-014 5.56597e-015
rhumerus -0.933354 12.5938 -78.868
rradius 127.952
rwrist -3.81186
rhand -14.9345 29.0845
rfingers 7.12502
rthumb 11.2279 -0.595073
lclavicle 5.32743e-014 5.56597e-015
lhumerus -0.231714 -3.08736 85.234
lradius 128.435
lwrist -6.63773
lhand -11.0735 6.14381
lfingers 7.12502
lthumb 14.9497 35.5843
rfemur -8.94517 -6.72205 13.7777
rtibia 47.0752
rfoot -27.9633 3.48299
rtoes -16.9725
lfemur -35.177 1.30748 -7.42861
ltibia 56.3946
lfoot -13.1325 -8.40003
ltoes -24.7265
4374
root 6.0014 16.6588 -3.95663 10.4711 -73.1751 -7.87075
lowerback 10.741 3.52434 2.62987
upperback 0.899186 5.1219 3.64639
thorax -5.17971 2.47194 1.56867
lowerneck -22.1875 4.59287 -7.34406
upperneck 22.3976 7.57605 5.00081
head 10.3299 3.4477 4.11708
rclavicle 9.93923e-015 1.59028e-015
rhumerus -1.15113 12.4934 -78.8845
rradius 127.805
rwrist -3.73323
rhand -14.8777 28.9137
rfingers 7.12502
rthumb 11.2827 -0.762824
lclavicle 9.93923e-015 1.59028e-015
lhumerus -0.437172 -2.52117 85.3443
lradius 128.659
lwrist -6.59459
lhand -10.8523 6.02123
lfingers 7.12502
lthumb 15.1628 35.4457
rfemur -9.2694 -6.52865 13.303
rtibia 47.3772
rfoot -28.639 3.57724
rtoes -16.8684
lfemur -35.3373 1.768 -7.89988
ltibia 56.8568
lfoot -13.5117 -8.13756
ltoes -24.9864
4375
root 6.00051 16.6275 -3.94664 9.34758 -73.7983 -6.5664
lowerback 10.6782 3.60509 2.30769
upperback 0.857488 5.18931 3.55054
thorax -5.20893 2.51311 1.63954
lowerneck -22.3069 4.71037 -7.22582
upperneck 22.3993 7.75347 4.83521
head 10.3531 3.51768 4.06811
rclavicle 1.64991e-014 3.33958e-014
rhumerus -1.50785 12.2415 -79.0022
rradius 127.662
rwrist -3.84822
rhand -14.9017 29.1149
rfingers 7.12502
rthumb 11.2596 -0.562929
lclavicle 1.64991e-014 3.33958e-014
lhumerus -0.515396 -1.9992 85.123
lradius 128.764
lwrist -6.6296
lhand -10.4231 5.76628
lfingers 7.12502
lthumb 15.5762 35.1591
rfemur -9.51878 -6.25253 12.7172
rtibia 47.4917
rfoot -29.0856 4.08365
rtoes -15.7253
lfemur -35.4663 2.12322 -8.40703
ltibia 57.2389
lfoot -13.8042 -7.71037
ltoes -24.7289
4376
root 5.98776 16.6085 -3.93537 10.1929 -74.2141 -7.52554
lowerback 10.5972 3.57785 2.63313
upperback 0.950523 5.18223 3.65011
thorax -5.04631 2.50304 1.57234
lowerneck -22.4388 4.82479 -7.19917
upperneck 22.3214 7.91619 4.82962
head 10.3385 3.5975 4.08534
rclavicle -1.49089e-014 -3.81667e-014
rhumerus -1.7497 12.0056 -79.25
rradius 127.533
rwrist -4.00007
rhand -14.7895 29.2544
rfingers 7.12502
rthumb 11.3678 -0.417438
lclavicle -1.49089e-014 -3.81667e-014
lhumerus -0.606777 -1.75664 84.8663
lradius 128.987
lwrist -6.34325
lhand -10.6526 6.12195
lfingers 7.12502
lthumb 15.3552 35.5318
rfemur -9.41245 -5.97006 12.8897
rtibia 47.4237
rfoot -29.3945 4.18001
rtoes -15.9976
lfemur -35.323 2.33586 -8.07041
ltibia 57.5241
lfoot -13.8887 -7.84275
ltoes -24.3057
4377
root 5.97343 16.5995 -3.91949 10.8972 -74.6988 -8.35631
lowerback 10.4745 3.54634 2.8701
upperback 1.088 5.1535 3.7639
thorax -4.82283 2.48559 1.57614
lowerneck -22.5087 4.93357 -7.23429
upperneck 22.1642 8.07277 4.87557
head 10.2786 3.67943 4.12321
rclavicle -1.86858e-014 3.33958e-014
rhumerus -1.90661 11.9653 -79.4416
rradius 127.466
rwrist -4.39292
rhand -14.5867 29.1755
rfingers 7.12502
rthumb 11.5633 -0.485548
lclavicle -1.86858e-014 3.33958e-014
lhumerus -0.70766 -1.52108 84.6597
lradius 129.25
lwrist -5.91493
lhand -11.1237 6.65754
lfingers 7.12502
lthumb 14.9013 36.1016
rfemur -9.23137 -5.67735 12.9706
rtibia 47.1917
rfoot -29.7096 4.02316
rtoes -17.1494
lfemur -35.0661 2.43746 -7.76526
ltibia 57.692
lfoot -13.9019 -8.10223
ltoes -24.6298
